<?xml version="1.0" standalone="no"?>
<!DOCTYPE svg PUBLIC "-//W3C//DTD SVG 20010904//EN"
 "http://www.w3.org/TR/2001/REC-SVG-20010904/DTD/svg10.dtd">
<svg version="1.0" xmlns="http://www.w3.org/2000/svg"
 width="248.000000pt" height="248.000000pt" viewBox="0 0 248.000000 248.000000"
 preserveAspectRatio="xMidYMid meet">
<metadata>
Created by potrace 1.11, written by Peter Selinger 2001-2013
</metadata>
<g transform="translate(0.000000,248.000000) scale(0.100000,-0.100000)"
fill="#000000" stroke="none">
<path d="M542 2234 c-17 -8 -42 -58 -42 -86 1 -35 20 -62 78 -108 67 -52 81
-80 58 -115 -16 -25 -46 -32 -81 -18 -10 3 -26 24 -36 47 l-19 41 0 -60 c0
-34 4 -55 8 -47 7 9 16 10 40 1 72 -25 132 13 132 84 0 41 -24 73 -90 122 -53
39 -69 70 -50 104 23 44 94 18 112 -42 4 -15 6 -8 7 23 1 37 -3 46 -16 48 -10
1 -34 4 -53 6 -19 3 -41 3 -48 0z"/>
<path d="M280 2211 c5 -11 10 -80 10 -155 0 -109 -3 -138 -16 -150 -14 -15
-11 -16 31 -16 42 0 45 1 31 16 -11 11 -16 35 -16 79 l0 63 43 0 c24 -1 50 2
56 7 22 13 41 72 35 105 -10 49 -46 70 -121 70 -60 0 -63 -1 -53 -19z m113
-19 c24 -21 23 -93 -2 -116 -11 -10 -30 -16 -43 -14 -21 3 -23 8 -26 75 -2 62
0 72 15 75 20 5 31 1 56 -20z"/>
<path d="M748 2068 c2 -124 0 -163 -10 -169 -7 -5 32 -9 89 -9 l102 0 10 37
c6 20 8 39 6 42 -3 2 -5 -1 -5 -8 0 -6 -11 -23 -25 -36 -18 -19 -35 -25 -68
-25 -53 0 -57 6 -57 96 l0 64 45 0 c31 0 47 -5 54 -17 8 -14 10 -10 10 22 0
22 -3 34 -6 28 -3 -8 -24 -13 -54 -13 l-50 0 3 68 3 67 34 3 c50 5 81 -6 91
-31 8 -20 9 -19 9 11 l1 32 -92 0 -93 0 3 -162z"/>
<path d="M1138 2218 c17 -17 17 -299 0 -316 -9 -9 8 -12 76 -12 83 0 89 1 117
29 39 40 39 82 -1 122 -22 22 -26 31 -15 35 19 8 34 55 28 88 -10 48 -46 66
-136 66 -63 0 -78 -3 -69 -12z m126 -9 c29 -14 45 -53 36 -89 -7 -29 -44 -51
-80 -48 -23 3 -25 7 -28 62 -2 32 -1 65 2 72 7 17 36 18 70 3z m28 -179 c51
-62 -12 -152 -86 -124 -13 5 -16 22 -16 81 l0 76 42 -6 c27 -4 49 -14 60 -27z"/>
<path d="M1418 2218 c8 -8 12 -58 12 -158 0 -100 -4 -150 -12 -158 -9 -9 -2
-12 33 -11 24 0 38 3 32 6 -9 3 -13 29 -13 79 0 98 15 97 74 -6 45 -78 48 -80
84 -79 31 0 34 2 15 9 -12 5 -40 41 -63 80 -40 68 -41 72 -23 85 10 8 21 15
25 15 12 0 29 66 22 86 -4 10 -16 29 -27 42 -18 19 -30 22 -96 22 -58 0 -72
-3 -63 -12z m129 -27 c32 -42 4 -114 -49 -127 l-28 -6 0 75 c0 51 4 77 13 80
18 8 50 -4 64 -22z"/>
<path d="M1699 2168 c-9 -7 -19 -22 -23 -32 -6 -19 -6 -19 12 -3 40 36 82 12
82 -48 0 -33 -12 -56 -61 -121 -22 -28 -39 -54 -39 -57 0 -4 29 -7 65 -7 36 0
65 4 65 9 0 5 3 18 7 28 6 16 5 16 -9 5 -10 -8 -34 -12 -58 -10 l-41 3 41 53
c22 30 45 71 52 93 10 35 9 43 -9 67 -22 30 -60 39 -84 20z"/>
<path d="M1871 2148 c-40 -65 -37 -183 7 -231 22 -25 61 -18 86 16 17 23 21
43 21 107 0 64 -4 84 -21 107 -31 42 -69 42 -93 1z m77 -23 c16 -46 9 -179 -9
-201 -17 -20 -37 -17 -51 9 -16 29 -16 184 1 215 18 33 44 23 59 -23z"/>
<path d="M2076 2167 c-13 -10 -15 -16 -8 -21 17 -10 16 -218 0 -234 -9 -9 -5
-12 21 -12 23 0 30 3 24 13 -4 6 -10 70 -13 140 -5 124 -6 127 -24 114z"/>
<path d="M2225 2163 c-64 -63 -22 -188 51 -154 24 10 25 10 18 -11 -9 -31 -41
-75 -62 -88 -12 -6 -13 -9 -3 -10 7 0 30 17 51 38 63 63 76 157 29 216 -23 30
-60 34 -84 9z m74 -42 c18 -57 6 -96 -29 -96 -28 0 -50 34 -50 78 0 78 56 91
79 18z"/>
<path d="M980 2005 c0 -11 12 -15 50 -15 38 0 50 4 50 15 0 11 -12 15 -50 15
-38 0 -50 -4 -50 -15z"/>
<path d="M41 1748 c0 -42 2 -48 9 -30 6 14 18 22 34 22 16 0 27 7 31 20 9 29
-2 40 -41 40 l-34 0 1 -52z m64 22 c0 -9 -11 -16 -27 -18 -23 -3 -28 1 -28 18
0 17 5 21 28 18 16 -2 27 -9 27 -18z"/>
<path d="M611 1786 c-13 -15 -1 -29 37 -40 12 -4 22 -12 22 -17 0 -17 -32 -23
-54 -9 -19 12 -20 12 -7 -3 16 -20 42 -22 59 -5 19 19 14 28 -23 44 -39 16
-38 39 1 31 13 -2 21 0 18 4 -8 14 -40 11 -53 -5z"/>
<path d="M1200 1792 c0 -4 16 -6 35 -4 19 2 35 6 35 8 0 2 -16 4 -35 4 -19 0
-35 -4 -35 -8z"/>
<path d="M2120 1750 l0 -51 33 3 c31 3 32 5 32 48 0 43 -1 45 -32 48 l-33 3 0
-51z m60 25 c0 -9 -9 -15 -25 -15 -16 0 -25 6 -25 15 0 9 9 15 25 15 16 0 25
-6 25 -15z m0 -50 c0 -9 -9 -15 -25 -15 -16 0 -25 6 -25 15 0 9 9 15 25 15 16
0 25 -6 25 -15z"/>
<path d="M2443 1750 c0 -30 2 -43 4 -27 2 15 2 39 0 55 -2 15 -4 2 -4 -28z"/>
<path d="M848 1780 c-5 -17 3 -80 11 -80 7 0 6 79 -2 86 -3 3 -7 0 -9 -6z"/>
<path d="M141 1733 c2 -35 2 -35 6 -8 3 16 10 33 16 37 8 5 6 8 -5 8 -14 0
-18 -8 -17 -37z"/>
<path d="M185 1759 c-12 -19 4 -59 24 -59 26 0 44 25 36 50 -7 21 -49 28 -60
9z m49 -8 c9 -14 -4 -41 -19 -41 -18 0 -28 17 -21 35 6 17 32 20 40 6z"/>
<path d="M265 1750 c-11 -34 33 -68 50 -40 4 6 -4 9 -17 7 -17 -1 -23 3 -23
18 0 13 6 20 18 19 9 -1 17 2 17 7 0 18 -39 8 -45 -11z"/>
<path d="M344 1756 c-15 -38 22 -74 49 -47 7 7 4 8 -10 5 -12 -3 -24 -1 -27 5
-5 7 3 11 19 11 20 0 26 4 23 18 -4 22 -46 29 -54 8z m46 -6 c0 -5 -9 -10 -20
-10 -11 0 -20 5 -20 10 0 6 9 10 20 10 11 0 20 -4 20 -10z"/>
<path d="M425 1760 c-8 -14 3 -30 21 -30 8 0 14 -5 14 -11 0 -7 -9 -9 -21 -6
-15 4 -19 3 -12 -4 14 -14 45 -8 50 8 3 7 -7 17 -21 23 -31 11 -35 25 -6 17
11 -3 20 -1 20 4 0 12 -37 11 -45 -1z"/>
<path d="M500 1754 c0 -9 9 -18 20 -21 11 -3 20 -10 20 -15 0 -6 -9 -8 -20 -5
-11 3 -20 1 -20 -5 0 -5 10 -8 22 -6 26 3 38 38 14 38 -8 0 -18 5 -22 12 -5 8
0 9 14 6 12 -4 20 -2 16 3 -9 15 -44 10 -44 -7z"/>
<path d="M701 1763 c-1 -6 4 -24 9 -39 7 -19 7 -30 -1 -40 -7 -9 -8 -14 -1
-14 5 0 17 21 26 47 19 57 20 66 1 33 l-14 -25 -10 25 c-5 14 -10 20 -10 13z"/>
<path d="M775 1760 c-8 -14 3 -30 21 -30 8 0 14 -5 14 -11 0 -7 -9 -9 -21 -6
-15 4 -19 3 -12 -4 14 -14 45 -8 50 8 3 7 -7 17 -21 23 -31 11 -35 25 -6 17
11 -3 20 -1 20 4 0 12 -37 11 -45 -1z"/>
<path d="M885 1750 c-11 -33 32 -68 49 -41 4 5 -2 7 -13 4 -10 -3 -22 0 -25 6
-5 7 4 11 23 11 33 0 39 8 19 28 -19 19 -46 14 -53 -8z m45 0 c0 -5 -7 -10
-15 -10 -8 0 -15 5 -15 10 0 6 7 10 15 10 8 0 15 -4 15 -10z"/>
<path d="M973 1735 c0 -22 2 -30 4 -17 2 12 2 30 0 40 -3 9 -5 -1 -4 -23z"/>
<path d="M998 1763 c6 -3 13 -19 13 -36 l1 -32 7 30 c3 17 13 30 21 30 8 0 18
-13 22 -30 6 -29 6 -29 5 5 -2 34 -3 35 -42 36 -22 1 -34 -1 -27 -3z"/>
<path d="M1090 1754 c0 -9 9 -18 20 -21 11 -3 20 -10 20 -15 0 -6 -9 -8 -20
-5 -11 3 -20 1 -20 -5 0 -5 10 -8 22 -6 26 3 38 38 14 38 -8 0 -18 5 -22 12
-5 8 0 9 14 6 12 -4 20 -2 16 3 -9 15 -44 10 -44 -7z"/>
<path d="M1292 1733 c1 -37 1 -37 5 -5 3 18 10 32 18 32 8 0 15 -14 18 -32 4
-32 4 -32 5 5 2 33 0 37 -23 37 -23 0 -25 -4 -23 -37z"/>
<path d="M1374 1756 c-10 -27 1 -50 26 -57 21 -5 22 -7 8 -14 -9 -4 -23 -3
-30 1 -10 5 -10 4 -2 -5 7 -7 20 -11 30 -9 15 2 20 14 22 51 3 45 2 47 -23 47
-14 0 -28 -6 -31 -14z m43 -12 c8 -21 -13 -42 -28 -27 -13 13 -5 43 11 43 6 0
13 -7 17 -16z"/>
<path d="M1453 1735 c0 -22 2 -30 4 -17 2 12 2 30 0 40 -3 9 -5 -1 -4 -23z"/>
<path d="M1481 1733 c1 -36 2 -37 8 -8 3 17 13 30 21 30 8 0 18 -13 22 -30 6
-29 6 -29 5 5 -2 30 -6 35 -29 38 -26 3 -28 1 -27 -35z"/>
<path d="M1565 1750 c-11 -33 32 -68 49 -41 4 5 -2 7 -13 4 -10 -3 -22 0 -25
6 -5 7 4 11 23 11 33 0 39 8 19 28 -19 19 -46 14 -53 -8z m45 0 c0 -5 -7 -10
-15 -10 -8 0 -15 5 -15 10 0 6 7 10 15 10 8 0 15 -4 15 -10z"/>
<path d="M1649 1754 c-25 -30 27 -72 55 -44 8 9 5 10 -15 5 -16 -4 -30 -2 -33
4 -5 7 4 11 24 11 25 0 31 3 26 16 -3 9 -6 18 -6 20 0 11 -39 2 -51 -12z m46
-4 c3 -5 -3 -10 -14 -10 -12 0 -21 5 -21 10 0 6 6 10 14 10 8 0 18 -4 21 -10z"/>
<path d="M1731 1733 c2 -35 2 -35 6 -8 3 16 10 33 16 37 8 5 6 8 -5 8 -14 0
-18 -8 -17 -37z"/>
<path d="M1773 1735 c0 -22 2 -30 4 -17 2 12 2 30 0 40 -3 9 -5 -1 -4 -23z"/>
<path d="M1801 1733 c1 -36 2 -37 8 -8 3 17 13 30 21 30 8 0 18 -13 22 -30 6
-29 6 -29 5 5 -2 30 -6 35 -29 38 -26 3 -28 1 -27 -35z"/>
<path d="M1885 1750 c-7 -23 10 -50 31 -50 8 0 14 -5 14 -11 0 -6 -9 -9 -20
-6 -11 3 -20 1 -20 -4 0 -20 41 -8 52 16 13 30 5 43 -17 25 -19 -16 -41 1 -32
24 7 17 37 22 37 6 0 -5 5 -10 10 -10 6 0 10 7 10 15 0 24 -57 20 -65 -5z"/>
<path d="M2211 1733 c1 -27 3 -31 6 -13 2 14 12 31 21 38 14 11 13 12 -6 12
-19 0 -22 -5 -21 -37z"/>
<path d="M2266 1761 c-4 -5 4 -7 16 -5 l23 5 -22 -12 c-34 -18 -30 -49 5 -49
26 0 28 2 24 35 -3 26 -9 35 -23 35 -10 0 -20 -4 -23 -9z m26 -43 c-6 -6 -15
-8 -19 -4 -4 4 -1 11 7 16 19 12 27 3 12 -12z"/>
<path d="M2353 1761 c17 -6 17 -8 -3 -34 l-21 -27 38 1 c35 1 36 2 9 8 l-28 6
21 19 c28 26 26 36 -6 35 -22 0 -24 -2 -10 -8z"/>
<path d="M2413 1735 c0 -22 2 -30 4 -17 2 12 2 30 0 40 -3 9 -5 -1 -4 -23z"/>
<path d="M1200 1750 c0 -5 14 -10 30 -10 17 0 30 5 30 10 0 6 -13 10 -30 10
-16 0 -30 -4 -30 -10z"/>
<path d="M2008 1733 c12 -2 32 -2 45 0 12 2 2 4 -23 4 -25 0 -35 -2 -22 -4z"/>
<path d="M1200 1708 c0 -4 16 -8 35 -8 19 0 35 2 35 4 0 2 -16 6 -35 8 -19 2
-35 0 -35 -4z"/>
<path d="M1103 1403 c9 -2 23 -2 30 0 6 3 -1 5 -18 5 -16 0 -22 -2 -12 -5z"/>
<path d="M1318 1403 c7 -3 16 -2 19 1 4 3 -2 6 -13 5 -11 0 -14 -3 -6 -6z"/>
<path d="M1048 1393 c6 -2 18 -2 25 0 6 3 1 5 -13 5 -14 0 -19 -2 -12 -5z"/>
<path d="M1368 1393 c7 -3 16 -2 19 1 4 3 -2 6 -13 5 -11 0 -14 -3 -6 -6z"/>
<path d="M990 1380 c-18 -12 -2 -12 25 0 13 6 15 9 5 9 -8 0 -22 -4 -30 -9z"/>
<path d="M1041 1375 c-125 -35 -207 -105 -267 -229 -47 -98 -60 -166 -44 -241
14 -69 68 -192 107 -243 34 -45 63 -140 63 -206 0 -58 -23 -103 -98 -189 -23
-27 -42 -49 -42 -50 0 -1 91 0 202 2 139 2 225 -1 272 -10 l69 -13 23 30 c14
17 21 36 18 47 -7 21 7 21 94 3 72 -16 120 -8 154 26 17 17 19 28 14 72 -5 38
-3 56 8 71 19 25 20 35 2 35 -30 0 -26 21 7 40 32 19 34 23 30 63 -6 49 7 65
60 76 27 6 32 11 30 35 -2 24 0 26 15 14 10 -8 7 -1 -7 20 -12 17 -25 32 -29
32 -3 0 -1 -5 6 -12 17 -17 15 -33 -2 -19 -8 6 -20 26 -27 44 -7 18 -23 47
-35 66 -21 31 -23 43 -18 110 5 66 2 85 -19 141 -43 109 -67 151 -117 200 -82
83 -113 94 -275 97 -102 2 -155 -1 -194 -12z m133 -26 c-8 -14 -34 -11 -34 4
0 8 3 17 7 20 9 9 34 -13 27 -24z m129 1 c-26 -11 -39 -46 -23 -65 18 -22 67
-19 80 5 11 21 1 53 -20 63 -6 3 -5 4 2 3 7 -1 20 -15 28 -30 14 -26 14 -28
-14 -52 -35 -30 -62 -28 -83 8 -15 24 -15 28 0 52 10 14 25 26 35 25 13 0 12
-2 -5 -9z m-268 -44 c8 -24 6 -31 -14 -47 -13 -10 -19 -19 -13 -19 6 0 18 7
27 16 13 13 18 14 31 3 11 -9 18 -9 26 -1 15 15 51 15 66 0 31 -31 -5 -89 -45
-74 -21 9 -38 -4 -22 -16 11 -7 11 -11 2 -15 -7 -2 -13 -9 -13 -14 0 -6 -9
-19 -20 -31 -11 -12 -20 -17 -20 -10 0 6 -7 9 -15 6 -8 -4 -15 -1 -15 6 0 6
-5 8 -10 5 -7 -4 -7 -13 0 -26 7 -13 7 -19 0 -19 -5 0 -10 -6 -10 -14 0 -17
-18 -32 -51 -39 -24 -6 -26 -4 -21 19 4 23 2 25 -24 18 -27 -6 -25 -3 21 39
28 26 46 46 40 47 -5 0 -11 14 -12 31 -2 21 2 29 10 26 7 -2 17 1 24 8 9 10 5
14 -18 19 -24 5 -30 10 -28 28 2 13 -1 29 -5 37 -13 20 32 52 69 49 23 -2 32
-10 40 -32z m203 -13 c1 -12 -3 -23 -9 -23 -6 0 -8 -9 -4 -20 5 -16 2 -20 -14
-20 -22 0 -29 24 -11 35 6 3 10 16 10 29 0 30 25 29 28 -1z m93 17 c9 13 10
13 6 0 -2 -8 -10 -15 -17 -15 -7 0 -15 7 -17 15 -4 13 -3 13 6 0 10 -13 12
-13 22 0z m115 -15 c7 -17 -14 -47 -27 -39 -5 3 -6 -9 -3 -25 7 -35 -9 -61
-38 -61 -10 0 -17 -3 -15 -7 3 -5 -6 -8 -19 -8 -21 0 -22 2 -9 12 11 7 12 13
6 18 -16 10 -13 41 6 56 15 13 15 12 2 -8 -12 -20 -12 -25 3 -39 23 -23 58
-10 58 22 0 13 -5 24 -11 24 -8 0 -8 4 0 14 9 11 9 15 0 18 -20 7 -2 38 21 38
11 0 23 -7 26 -15z m-531 -25 c3 -5 1 -20 -6 -32 -6 -13 -8 -20 -4 -16 18 17
33 -13 24 -50 -9 -43 -35 -65 -66 -57 -25 6 -31 -13 -11 -33 6 -6 9 -15 5 -19
-4 -3 -17 4 -28 16 -16 17 -18 26 -10 34 17 17 13 31 -4 17 -13 -10 -15 -9
-15 10 0 27 36 80 56 80 8 0 14 8 14 18 0 31 32 53 45 32z m558 -27 c-15 -5
-17 -29 -4 -37 5 -4 16 -3 25 0 12 5 13 10 5 26 -13 25 -6 34 11 13 20 -24 -2
-65 -31 -60 -23 5 -39 21 -39 42 0 14 32 34 40 26 3 -3 -1 -8 -7 -10z m-177
-24 c1 -22 -2 -25 -28 -21 -15 2 -28 8 -28 12 0 46 54 54 56 9z m94 7 c0 -2
-7 -7 -16 -10 -8 -3 -12 -2 -9 4 6 10 25 14 25 6z m-180 -67 c0 -24 -33 -42
-48 -27 -14 14 -15 35 -3 42 5 4 7 -3 4 -14 -4 -15 0 -20 16 -20 12 0 21 6 21
15 0 8 -4 15 -10 15 -5 0 -10 4 -10 10 0 5 7 7 15 4 8 -4 15 -14 15 -25z m335
10 c-8 -12 -35 -12 -35 0 0 11 22 20 33 14 4 -2 5 -9 2 -14z m-258 -12 c11
-17 56 -39 72 -35 8 2 24 13 37 26 30 29 75 28 110 -1 38 -33 37 -81 -1 -115
-52 -45 -135 -9 -135 58 0 23 -4 27 -19 23 -10 -3 -22 0 -25 6 -11 16 -29 13
-23 -4 4 -8 1 -17 -5 -21 -7 -5 -8 -2 -3 6 5 9 4 11 -4 6 -6 -4 -9 -12 -6 -17
9 -13 -39 -11 -53 3 -17 17 -15 38 5 60 19 21 39 23 50 5z m289 -18 c10 -17
-13 -36 -27 -22 -12 12 -4 33 11 33 5 0 12 -5 16 -11z m-418 -47 c2 -13 -3
-31 -11 -40 -9 -9 -16 -21 -16 -27 -2 -18 -36 -11 -36 8 0 10 -8 23 -18 28
-16 9 -16 12 0 35 22 34 76 31 81 -4z m196 -24 c8 -14 7 -21 -6 -34 -30 -30
-75 9 -48 42 16 18 39 15 54 -8z m246 2 c0 -24 -26 -38 -42 -22 -16 16 -2 42
22 42 13 0 20 -7 20 -20z m-823 -22 c-3 -7 -5 -2 -5 12 0 14 2 19 5 13 2 -7 2
-19 0 -25z m477 16 c21 -8 21 -40 0 -48 -8 -3 -12 -11 -9 -17 5 -7 14 -4 26 7
18 16 21 16 35 2 9 -9 13 -21 10 -27 -10 -15 -43 -14 -49 2 -3 7 -6 6 -6 -5
-1 -9 -5 -19 -9 -22 -5 -3 -8 5 -8 17 1 16 -5 22 -19 22 -14 0 -20 -6 -19 -22
0 -12 -3 -20 -8 -17 -14 9 -9 41 7 48 8 3 12 12 9 21 -7 18 2 45 15 45 5 0 16
-3 25 -6z m-174 -18 c0 -11 -19 -15 -25 -6 -3 5 1 10 9 10 9 0 16 -2 16 -4z
m-40 -22 c0 -2 -9 -4 -20 -4 -11 0 -20 4 -20 9 0 5 9 7 20 4 11 -3 20 -7 20
-9z m541 -11 c13 -15 12 -15 -8 -2 -20 12 -26 12 -45 0 -21 -13 -22 -13 -9 2
7 10 21 17 31 17 10 0 24 -7 31 -17z m-175 -8 c4 -10 14 -13 30 -9 14 4 31 1
39 -6 22 -19 19 -57 -6 -65 -15 -5 -18 -10 -10 -18 16 -16 13 -34 -6 -41 -11
-5 -24 2 -38 18 -20 24 -21 24 -33 5 -7 -10 -22 -20 -35 -20 -20 -1 -20 -2 -2
-6 29 -7 45 -23 45 -45 0 -14 -6 -19 -22 -16 -15 2 -23 10 -23 23 0 12 -12 26
-30 35 -32 16 -46 63 -26 83 19 19 70 18 90 -2 19 -19 19 -19 25 2 9 33 7 37
-10 37 -14 0 -15 -2 -3 -17 13 -15 12 -16 -6 -8 -11 4 -30 9 -42 9 -25 1 -20
16 6 16 10 0 21 9 24 20 6 24 25 26 33 5z m-56 -5 c0 -5 -5 -10 -11 -10 -5 0
-7 5 -4 10 3 6 8 10 11 10 2 0 4 -4 4 -10z m-462 -22 c20 -17 14 -44 -13 -56
-20 -9 -27 -8 -40 5 -9 8 -14 22 -11 30 3 8 6 21 6 29 0 16 33 11 58 -8z m352
-4 c0 -8 -19 -13 -24 -6 -3 5 1 9 9 9 8 0 15 -2 15 -3z m-165 -32 c6 -4 10
-13 9 -19 -1 -7 -2 -17 -3 -22 0 -5 -10 -13 -21 -16 -32 -10 -66 36 -43 58 9
9 45 9 58 -1z m455 -22 c0 -11 -6 -20 -13 -20 -19 0 -27 10 -20 26 8 21 33 17
33 -6z m-288 -46 c8 -17 8 -27 -2 -39 -17 -21 -36 -19 -54 7 -14 19 -14 24 -1
38 21 23 45 21 57 -6z m153 -4 c-3 -5 -12 -10 -18 -10 -7 0 -6 4 3 10 19 12
23 12 15 0z m-75 -34 c0 -2 -7 -9 -15 -16 -13 -11 -14 -10 -9 4 5 14 24 23 24
12z m-382 -76 c13 -21 8 -24 -23 -10 -11 5 -14 9 -7 9 7 1 10 6 7 11 -3 6 -2
10 2 10 5 0 14 -9 21 -20z m-27 -57 c13 -15 12 -15 -8 -4 -24 12 -29 21 -14
21 5 0 15 -7 22 -17z"/>
<path d="M1120 1252 c-22 -8 -30 -25 -18 -39 15 -18 47 -16 55 3 7 19 -17 43
-37 36z m23 -27 c1 -5 -6 -11 -15 -13 -11 -2 -18 3 -18 13 0 17 30 18 33 0z"/>
<path d="M1050 1240 c-8 -5 -11 -12 -7 -16 4 -4 13 -2 19 4 15 15 7 24 -12 12z"/>
<path d="M1007 1183 c-11 -10 -8 -33 3 -33 6 0 10 7 10 16 0 8 5 12 10 9 6 -4
8 -11 5 -16 -4 -5 -1 -9 5 -9 7 0 9 7 6 16 -3 9 -6 18 -6 20 0 7 -26 5 -33 -3z"/>
<path d="M1410 1286 c0 -9 7 -16 16 -16 9 0 14 5 12 12 -6 18 -28 21 -28 4z"/>
<path d="M880 1171 c0 -16 -6 -32 -12 -34 -9 -4 -8 -6 3 -6 19 -1 39 19 38 39
0 11 -3 9 -10 -5 -8 -17 -9 -16 -6 8 3 15 0 27 -4 27 -5 0 -9 -13 -9 -29z"/>
<path d="M1405 1130 c-22 -25 -18 -66 7 -84 43 -31 91 -14 103 36 14 54 -71
91 -110 48z m55 -40 c0 -5 -4 -10 -10 -10 -5 0 -10 5 -10 10 0 6 5 10 10 10 6
0 10 -4 10 -10z"/>
<path d="M1310 1055 c0 -8 7 -15 15 -15 8 0 15 7 15 15 0 8 -7 15 -15 15 -8 0
-15 -7 -15 -15z"/>
<path d="M1562 1068 c6 -18 28 -21 28 -4 0 9 -7 16 -16 16 -9 0 -14 -5 -12
-12z"/>
<path d="M1427 983 c-3 -4 -8 -25 -12 -46 -6 -32 -5 -36 9 -31 11 4 13 10 7
18 -7 8 -2 12 17 11 22 0 27 4 27 25 0 18 -6 26 -22 28 -11 2 -23 -1 -26 -5z
m37 -21 c3 -5 -1 -9 -9 -9 -8 0 -15 4 -15 9 0 4 4 8 9 8 6 0 12 -4 15 -8z"/>
<path d="M1297 943 c-13 -13 -7 -51 11 -64 15 -13 16 -12 3 3 -7 10 -11 29 -9
43 6 27 5 29 -5 18z"/>
<path d="M845 961 c-7 -12 12 -24 25 -16 11 7 4 25 -10 25 -5 0 -11 -4 -15 -9z"/>
<path d="M1035 921 c-7 -12 12 -24 25 -16 11 7 4 25 -10 25 -5 0 -11 -4 -15
-9z"/>
<path d="M1202 858 c6 -18 28 -21 28 -4 0 9 -7 16 -16 16 -9 0 -14 -5 -12 -12z"/>
<path d="M1515 1302 c33 -34 61 -62 63 -62 9 0 -64 81 -91 100 -18 14 -6 -3
28 -38z"/>
<path d="M830 1273 c-38 -44 -90 -131 -90 -150 0 -4 14 17 31 47 16 30 48 76
70 102 52 62 43 62 -11 1z"/>
<path d="M1580 1223 c0 -6 8 -17 18 -24 16 -13 16 -13 2 6 -8 11 -16 22 -17
24 -2 2 -3 0 -3 -6z"/>
<path d="M1621 1145 c0 -5 6 -21 14 -35 8 -14 14 -20 14 -15 0 6 -6 21 -14 35
-8 14 -14 21 -14 15z"/>
<path d="M1651 1065 c1 -19 18 -51 18 -35 0 8 -4 22 -9 30 -5 8 -9 11 -9 5z"/>
<path d="M711 894 c0 -11 3 -14 6 -6 3 7 2 16 -1 19 -3 4 -6 -2 -5 -13z"/>
<path d="M1651 895 c0 -11 13 -38 29 -59 17 -22 30 -36 30 -32 0 4 -11 22 -24
39 -13 18 -26 41 -29 52 l-5 20 -1 -20z"/>
<path d="M740 796 c0 -11 40 -86 45 -86 3 0 -4 19 -16 43 -23 45 -29 54 -29
43z"/>
<path d="M851 600 c14 -31 19 -36 19 -24 0 6 -7 19 -16 30 -14 18 -14 18 -3
-6z"/>
<path d="M1671 564 c0 -11 3 -14 6 -6 3 7 2 16 -1 19 -3 4 -6 -2 -5 -13z"/>
<path d="M1648 521 c-25 -16 -26 -19 -11 -34 16 -15 15 -18 -2 -39 l-19 -23
23 21 c19 18 21 25 12 42 -9 17 -8 22 9 27 11 3 20 11 20 16 0 11 1 11 -32
-10z"/>
<path d="M1622 345 c0 -16 2 -22 5 -12 2 9 2 23 0 30 -3 6 -5 -1 -5 -18z"/>
<path d="M768 263 c-18 -21 -31 -43 -25 -43 2 0 13 14 25 30 25 33 24 41 0 13z"/>
<path d="M1390 261 c0 -5 -9 -13 -20 -16 -11 -3 -25 -16 -31 -28 -11 -21 -11
-21 7 -4 11 9 30 26 44 37 14 11 19 19 13 20 -7 0 -13 -4 -13 -9z"/>
<path d="M1550 260 c-23 -7 -23 -8 -3 -9 12 -1 25 4 28 9 3 6 5 10 3 9 -2 -1
-14 -5 -28 -9z"/>
<path d="M1438 253 c6 -2 18 -2 25 0 6 3 1 5 -13 5 -14 0 -19 -2 -12 -5z"/>
<path d="M1498 243 c7 -3 16 -2 19 1 4 3 -2 6 -13 5 -11 0 -14 -3 -6 -6z"/>
</g>
</svg>
